<?xml version="1.0" encoding="UTF-8"?>
<svg id="Calque_1" xmlns="http://www.w3.org/2000/svg" xmlns:xlink="http://www.w3.org/1999/xlink" version="1.1" viewBox="0 0 1087 463">
  <!-- Generator: Adobe Illustrator 29.4.0, SVG Export Plug-In . SVG Version: 2.1.0 Build 152)  -->
  <defs>
    <style>
      .st0 {
        fill: #fff;
      }

      .st1 {
        fill: url(#Dégradé_sans_nom_10);
      }

      .st1, .st2 {
        fill-opacity: .9;
      }

      .st3 {
        fill: url(#Dégradé_sans_nom_13);
      }

      .st2 {
        fill: url(#Dégradé_sans_nom_7);
      }
    </style>
    <radialGradient id="Dégradé_sans_nom_13" data-name="Dégradé sans nom 13" cx="125.3" cy="137.3" fx="125.3" fy="137.3" r="118.1" gradientUnits="userSpaceOnUse">
      <stop offset="0" stop-color="#fff" stop-opacity="0"/>
      <stop offset=".3" stop-color="#fff" stop-opacity="0"/>
      <stop offset=".4" stop-color="#fff" stop-opacity="0"/>
      <stop offset=".5" stop-color="#fff" stop-opacity="0"/>
      <stop offset=".6" stop-color="#fff" stop-opacity=".2"/>
      <stop offset=".6" stop-color="#fff" stop-opacity=".3"/>
      <stop offset=".7" stop-color="#fff" stop-opacity=".4"/>
      <stop offset=".8" stop-color="#fff" stop-opacity=".5"/>
      <stop offset=".8" stop-color="#fff" stop-opacity=".7"/>
      <stop offset=".9" stop-color="#fff" stop-opacity=".9"/>
      <stop offset=".9" stop-color="#fff" stop-opacity=".9"/>
    </radialGradient>
    <radialGradient id="Dégradé_sans_nom_10" data-name="Dégradé sans nom 10" cx="237.2" cy="196.6" fx="237.2" fy="196.6" r="54" gradientUnits="userSpaceOnUse">
      <stop offset="0" stop-color="#fff" stop-opacity="0"/>
      <stop offset=".1" stop-color="#fff" stop-opacity="0"/>
      <stop offset=".3" stop-color="#fff" stop-opacity="0"/>
      <stop offset=".4" stop-color="#fff" stop-opacity=".1"/>
      <stop offset=".5" stop-color="#fff" stop-opacity=".2"/>
      <stop offset=".6" stop-color="#fff" stop-opacity=".4"/>
      <stop offset=".7" stop-color="#fff" stop-opacity=".5"/>
      <stop offset=".8" stop-color="#fff" stop-opacity=".7"/>
      <stop offset=".9" stop-color="#fff" stop-opacity=".9"/>
      <stop offset="1" stop-color="#fff"/>
    </radialGradient>
    <radialGradient id="Dégradé_sans_nom_7" data-name="Dégradé sans nom 7" cx="71.9" cy="413.1" fx="71.9" fy="413.1" r="32.8" gradientUnits="userSpaceOnUse">
      <stop offset="0" stop-color="#fff" stop-opacity="0"/>
      <stop offset=".1" stop-color="#fff" stop-opacity="0"/>
      <stop offset=".3" stop-color="#fff" stop-opacity="0"/>
      <stop offset=".4" stop-color="#fff" stop-opacity=".1"/>
      <stop offset=".5" stop-color="#fff" stop-opacity=".2"/>
      <stop offset=".6" stop-color="#fff" stop-opacity=".4"/>
      <stop offset=".7" stop-color="#fff" stop-opacity=".5"/>
      <stop offset=".8" stop-color="#fff" stop-opacity=".7"/>
      <stop offset=".9" stop-color="#fff" stop-opacity=".9"/>
      <stop offset="1" stop-color="#fff"/>
    </radialGradient>
  </defs>
  <circle class="st3" cx="125.3" cy="124.3" r="124"/>
  <path class="st0" d="M776.6,357.5c.2,0,.4-.2.4-.4h0v-97.1c0-.3.2-.5.5-.5h32.5c.3,0,.6.3.6.6h0v121.8c0,.3-.3.5-.5.5,0,0,0,0-.1,0-10.8-2.5-21.4-4.4-31.6-5.5-2.7-.3-6.7,0-12.2.6-5.5.7-15.7,2-30.5,3.8-2.9.4-6.9.5-11.9.4-17.2-.2-30.3-7.8-35.4-24.9-2.5-8.5-2.4-16.3-2.4-28.1,0-35.1,0-58,0-68.5,0-.4.3-.8.8-.8,0,0,0,0,0,0h32.4c.3,0,.5.2.5.5h0c0,30,0,53.8,0,71.2s2,19.7,11.6,23.8c3.6,1.6,6.8,2.4,9.5,2.4,10.6.2,22.6.2,35.8.1Z"/>
  <path class="st0" d="M179.9,284.4c-.2,0-.4.2-.4.4h0v97.1c0,.3-.2.5-.5.5h-32.5c-.3,0-.6-.3-.6-.6h0v-121.8c0-.3.2-.5.5-.5,0,0,0,0,.1,0,10.8,2.5,21.4,4.4,31.6,5.5,2.7.3,6.7,0,12.2-.6,5.5-.7,15.7-2,30.5-3.8,2.9-.4,6.9-.5,11.9-.4,17.1.2,30.3,7.8,35.4,24.9,2.5,8.5,2.4,16.3,2.4,28.1,0,35.1,0,58,0,68.5,0,.4-.3.8-.8.8,0,0,0,0,0,0h-32.4c-.3,0-.5-.2-.5-.5,0-30,0-53.8,0-71.2,0-9.2-2-19.7-11.6-23.8-3.6-1.6-6.8-2.4-9.5-2.4-10.6-.2-22.6-.2-35.8-.1Z"/>
  <path class="st0" d="M869.6,284.4c-.2,0-.4.2-.4.4v97.2c0,.3-.2.5-.5.5h-32.5c-.3,0-.6-.3-.6-.6h0v-121.8c0-.3.2-.5.5-.5,0,0,0,0,.1,0,10.9,2.6,21.4,4.4,31.6,5.5,2.7.3,6.7,0,12.2-.6,5.5-.7,15.7-2,30.5-3.8,2.9-.4,6.9-.5,11.9-.5,17.2.2,30.3,7.8,35.4,24.9,2.5,8.5,2.4,16.4,2.4,28.2,0,35.2,0,58,0,68.5,0,.4-.3.8-.8.8,0,0,0,0,0,0h-32.4c-.3,0-.5-.2-.5-.5,0-30.1,0-53.8,0-71.2,0-9.2-2-19.7-11.6-23.8-3.6-1.6-6.8-2.4-9.5-2.4-10.6-.2-22.6-.2-35.9-.1Z"/>
  <path class="st0" d="M613,260.2c17,0,36.2,0,57.7,0,.2,0,.4.2.4.4v19.7c0,.3-.2.5-.5.5h-39.3c-.4,0-.8.3-.8.8h0v100.3c0,.4-.3.7-.7.7s-6.1,0-16.9,0h-16.9c-.4,0-.7-.3-.7-.7v-100.3c0-.4-.4-.8-.8-.8h-39.3c-.3,0-.5-.2-.5-.5v-19.7c0-.2.2-.4.4-.4h57.7Z"/>
  <path class="st0" d="M458,382.6h-33.9c-.2,0-.4-.2-.4-.4v-120.7c0-.2.1-.3.3-.3h0c22.6,0,47.6,0,74.9-.2,11,0,24.2,1.8,34,7.7,16.9,10.2,19.1,35,15.1,52-6.1,26.3-30.4,30.1-53.8,29.7-15.6-.2-27.4-.3-35.2-.3-.2,0-.3.2-.3.3v31.4c0,.4-.3.7-.7.7h0ZM458.6,282.4l.2,46.9c0,.5.4,1,1,1h30.6c13.2-.1,23.9-10.4,23.8-22.9h0s0-3.3,0-3.3c0-12.6-10.8-22.7-24-22.6h-30.6c-.5.1-1,.5-1,1.1h0Z"/>
  <path class="st0" d="M392.4,321.8c0,4,0,7.3,0,10,0,.4-.3.7-.7.7h-59.1c-.2,0-.4.2-.4.4v27.6c0,.3.3.6.6.6h66.3c.3,0,.6.3.6.6v20.1c0,.4-.3.6-.6.6h-102.1c-.3,0-.6-.3-.6-.6h0c0-.5,0-20.5,0-60,0-39.5,0-59.5,0-60,0-.3.3-.6.6-.6h102.1c.4,0,.6.2.6.6v20.1c0,.3-.2.6-.6.6h-66.3c-.3,0-.6.3-.6.6v27.6c0,.2.2.4.4.4h59.1c.4,0,.7.3.7.6,0,2.6,0,6,0,10Z"/>
  <path class="st0" d="M983.3,321.8c0-39.5,0-59.5,0-60,0-.3.3-.6.6-.6,0,0,0,0,0,0h102.1c.4,0,.7.3.7.6h0v20.1c0,.3-.3.6-.6.6h-66.3c-.3,0-.6.3-.6.6v27.7c0,.2.2.4.4.4h59.1c.4,0,.7.3.7.6,0,2.6,0,6,0,10s0,7.3,0,10c0,.4-.3.6-.7.6h-59.1c-.2,0-.4.2-.4.4v27.7c0,.3.3.6.6.6h66.3c.3,0,.6.3.6.6v20.1c0,.4-.3.7-.7.7h-102.1c-.3,0-.6-.3-.6-.6h0c0-.5,0-20.5,0-60Z"/>
  <path class="st0" d="M583.7,439.3c0,13.1-10.6,23.7-23.7,23.7h-8.6c-13.1,0-23.7-10.6-23.7-23.7v-4.5c0-13.1,10.6-23.7,23.7-23.7h8.6c13.1,0,23.7,10.6,23.7,23.7h0v4.5ZM574.7,434.2c0-9.6-7.9-17.4-17.6-17.3h-3.3c-9.6,0-17.4,8-17.3,17.6v5.4c.1,9.6,8,17.4,17.6,17.3h3.3c9.6,0,17.4-8,17.3-17.6v-5.4Z"/>
  <path class="st0" d="M704.4,414.5v7.7c0,.1-.1.2-.2.2,0,0,0,0,0,0-9.5-5.1-17.5-6.7-23.8-4.8-3.8,1.1-7.4,2.9-7.6,6.9-.2,4.5,3.8,7,7.8,7.8,8.3,1.7,13,2.6,14.1,2.8,17,3.6,15.6,21.6.7,26.4-9.8,3.2-22.1,1.5-31.6-2.2-.3,0-.4-.3-.4-.6v-7.9c0-.2.1-.3.3-.3,0,0,.1,0,.2,0,8.5,5.4,17,8,26.8,5.8,2.3-.5,5.3-2.1,6.4-4.4,3.2-6.3-2.1-9.9-7.9-11-7.6-1.4-16-2.1-21.5-6.9-5.6-4.9-4.9-13.6,1-18.2,9.6-7.4,24.9-5.7,35.6-1.9.2,0,.3.2.3.4Z"/>
  <path class="st0" d="M939.1,442.8c-.1,0-.2-.1-.2-.2h0v-5.5c0-.2.2-.4.4-.4h22.8c.2,0,.4.2.4.4v21.3c0,.3-.2.5-.4.6-13.4,5.4-31.1,6.9-43-2.1-8.5-6.4-10.3-19.9-6.8-29.6,3.7-10.2,14.2-15.2,24.8-16,8.3-.7,16.5.6,24.5,3.9.4.1.6.5.6.9v7.2c0,.3-.2.5-.5.5-.1,0-.2,0-.3,0-10.8-7.4-28.6-10.8-37.9.9-4,5-4.7,13.3-2.9,19.1,4.7,15.1,20.1,14.9,32.7,12.3.4,0,.6-.4.6-.7v-11.7c0-.3-.3-.6-.6-.6h-14Z"/>
  <path class="st0" d="M169.1,412c1.6,0,3.2,0,4.9,0,.3,0,.5.2.6.4l21,49c.2.4,0,.8-.4.9,0,0-.2,0-.3,0h-6.8c-.6,0-1.2-.4-1.4-1l-5.5-12.8c-.1-.3-.4-.5-.7-.5-.8,0-4.6,0-11.4,0-6.8,0-10.6,0-11.4,0-.3,0-.6.2-.7.5l-5.5,12.8c-.2.6-.8.9-1.4,1h-6.8c-.4,0-.7-.3-.7-.7,0,0,0-.2,0-.3l21-48.9c.1-.3.4-.4.6-.4,1.7,0,3.3,0,4.9,0ZM159.4,441.9c0,.2,0,.3.2.4,0,0,0,0,.1,0h18.5c.2,0,.3-.1.3-.3,0,0,0,0,0-.1l-9.2-22.2c0-.2-.2-.2-.4-.2,0,0-.1,0-.2.2l-9.3,22.1Z"/>
  <path class="st0" d="M324.5,461.9c0,.2,0,.4-.3.4,0,0,0,0,0,0h-9.8c-.6,0-1.1-.2-1.5-.6l-18.3-18.3c-.6-.6-1.4-1-2.3-1h-7.9c-.3,0-.6.3-.6.6v18.7c0,.3-.3.6-.6.6h-7.4c-.3,0-.5-.2-.5-.5v-49.4c0-.2.2-.4.4-.4h0c8.7,0,15.7,0,21,0,10.2.1,21.4,5.3,18,17.9-1.4,5.2-7,9-12,10.3-.2,0-.3.2-.3.4,0,0,0,.1.1.2,1.4,1.4,8.7,8.3,21.7,20.8.1.1.2.3.2.4ZM283.7,418v18.1c.1.1.2.2.3.2h11.1c6.2,0,11.1-3.9,11.1-8.6v-1.7c0-4.7-5-8.4-11.2-8.4,0,0,0,0,0,0h-11.1c-.1,0-.2.2-.2.3h0Z"/>
  <path class="st0" d="M808,448.2c-6.8,0-10.6,0-11.4,0-.3,0-.6.2-.8.5l-5.5,12.8c-.2.6-.8.9-1.4,1h-6.8c-.4,0-.7-.3-.7-.7,0,0,0-.2,0-.3l21-49c.1-.3.4-.4.6-.4,1.7,0,3.3,0,4.9,0,1.6,0,3.2,0,4.9,0,.3,0,.5.2.6.4l21,49c.2.4,0,.8-.4.9,0,0-.2,0-.3,0h-6.8c-.6,0-1.2-.4-1.4-.9l-5.5-12.8c-.1-.3-.4-.5-.7-.5-.8,0-4.6,0-11.4,0ZM798.4,442c0,.2,0,.3.2.4,0,0,0,0,.1,0h18.4c.2,0,.3-.2.3-.3,0,0,0,0,0-.1l-9.3-22.2c0-.2-.3-.2-.4-.2,0,0-.1,0-.2.2l-9.2,22.2Z"/>
  <path class="st0" d="M1086.1,456.5v5.4c0,.2-.2.4-.4.4h-39.2c-.2,0-.4-.2-.4-.4h0v-49.6c0-.2.2-.4.4-.4h39.2c.2,0,.4.2.4.4v5.2c0,.2-.2.4-.4.4h-30.7c-.2,0-.4.2-.4.4v12.8c0,.2.2.4.4.4h28.7c.2,0,.4.2.4.4v5.4c0,.2-.2.4-.4.4h-28.7c-.2,0-.4.2-.4.4h0v17.7c0,.2.2.4.4.4h30.7c.2,0,.4.2.4.4h0Z"/>
  <path class="st0" d="M452.4,461.9c0,.2-.1.4-.3.4,0,0,0,0,0,0h-9.8c-.6,0-1.1-.2-1.5-.6l-18.4-18.3c-.6-.6-1.5-1-2.3-1h-7.9c-.3,0-.6.3-.6.6v18.7c0,.3-.2.6-.6.6h-7.4c-.3,0-.5-.2-.5-.5,0,0,0,0,0,0v-49.5c0-.2,0-.4.3-.4h0c8.7,0,15.7,0,21.1,0,10.2.1,21.4,5.3,18.1,17.8-1.4,5.2-7,9-12,10.3-.2,0-.3.2-.3.4,0,0,0,.1.1.2,1.4,1.4,8.7,8.3,21.8,20.8.1.1.2.3.2.4ZM411.7,418v18.1c.1.1.2.2.4.2,0,0,0,0,0,0h11c6.1-.1,11.1-3.9,11-8.5,0,0,0,0,0,0v-1.9c0-4.6-5-8.3-11.2-8.3h-11c-.1,0-.2.2-.2.3Z"/>
  <circle class="st1" cx="237" cy="188.4" r="62"/>
  <circle class="st2" cx="71.8" cy="408.1" r="37.7"/>
</svg>