<?xml version="1.0" encoding="UTF-8"?>
<svg id="Layer_2" xmlns="http://www.w3.org/2000/svg" version="1.1" viewBox="0 0 3332.4 3958.2">
  <!-- Generator: Adobe Illustrator 29.4.0, SVG Export Plug-In . SVG Version: 2.1.0 Build 152)  -->
  <defs>
    <style>
      .st0 {
        fill: #1d1d35;
      }
    </style>
  </defs>
  <path class="st0" d="M1229.2,3958.2c-67.9,0-136-5.6-202.9-16.8-77.5-12.9-154-33.3-227.5-60.7-74.3-27.6-146.1-62.6-213.4-103.9-140.2-86-260.1-198-356.4-332.8-96.3-134.8-163.4-284.6-199.3-445.1-17.3-77.1-27.1-156.4-29.1-235.6-2.1-78.4,3.5-157.5,16.4-234.9,12.9-77.5,33.3-154,60.7-227.5,27.6-74.3,62.6-146.1,103.9-213.4,86-140.2,198-260.1,332.8-356.4,134.8-96.3,284.6-163.4,445.1-199.3,77.1-17.3,156.4-27.1,235.6-29.1,78.4-2.1,157.5,3.5,234.9,16.4,77.5,12.9,154,33.3,227.5,60.7,74.3,27.6,146.1,62.6,213.4,103.9,140.2,86,260.1,198,356.4,332.8,96.3,134.8,163.4,284.6,199.3,445.1,17.3,77.1,27.1,156.4,29.1,235.6,2.1,78.4-3.4,157.5-16.4,234.9-12.9,77.5-33.3,154-60.7,227.5-27.6,74.3-62.6,146.1-103.9,213.4-86,140.2-198,260.1-332.8,356.4l-72.7-101.7,72.7,101.7c-134.8,96.3-284.6,163.4-445.1,199.3-77.1,17.3-156.4,27.1-235.6,29.1-10.7.3-21.3.4-32,.4ZM1226.9,1752c-71.4,0-142.6,7.9-213,23.6-127.7,28.6-246.9,82-354.4,158.8s-196.7,172.2-265.1,283.8c-66.1,107.8-110.2,226-131.1,351.3-20.9,125.3-17.5,251.5,10.1,374.8,28.6,127.7,82,246.9,158.8,354.4,76.8,107.5,172.2,196.7,283.8,265.1,107.8,66.1,226,110.2,351.3,131.1,53.9,9,108,13.5,161.9,13.5,71.4,0,142.6-7.9,213-23.6,127.7-28.6,246.9-82,354.4-158.8,107.5-76.8,196.7-172.2,265.1-283.8,66.1-107.8,110.2-226,131.1-351.3s17.5-251.5-10.1-374.8c-28.6-127.7-82-246.9-158.8-354.4-76.8-107.5-172.2-196.7-283.8-265.1-107.8-66.1-226-110.2-351.3-131.1-53.9-9-108-13.5-161.9-13.5Z"/>
  <path class="st0" d="M1641.4,3433.7c-39,0-77.4-18.2-101.8-52.3-40.1-56.2-27.1-134.2,29-174.4,39.6-28.3,75.5-61.3,106.7-98,30.2-35.6,56.1-74.9,77-116.8,30.8-61.8,105.8-86.9,167.6-56.1,61.8,30.8,86.9,105.8,56.1,167.6-29.8,59.9-66.9,116.1-110.1,167.1-44.5,52.4-95.6,99.5-152,139.7-22,15.7-47.4,23.3-72.6,23.3Z"/>
  <path class="st0" d="M2455.3,1752.2c-93,0-184.7-14.7-273.4-43.9-111.5-36.7-213.1-94.7-302.1-172.5-89-77.8-160.2-170.7-211.5-276.3-49.5-101.9-78.5-211.1-86.2-324.5-7.6-113.5,6.4-225.6,41.9-333.2,36.7-111.5,94.7-213.1,172.5-302.1,77.8-89,170.7-160.2,276.3-211.5,101.9-49.5,211.1-78.5,324.5-86.2,113.5-7.6,225.6,6.4,333.2,41.9,111.5,36.7,213.1,94.7,302.1,172.5h0c89,77.8,160.2,170.7,211.5,276.3,49.5,101.9,78.5,211.1,86.2,324.5s-6.4,225.6-41.9,333.2c-36.7,111.5-94.7,213.1-172.5,302.1-77.8,89-170.7,160.2-276.3,211.5-101.9,49.5-211.1,78.5-324.5,86.2-20,1.3-39.9,2-59.8,2ZM2457.1,250c-14.2,0-28.5.5-42.8,1.4-81.2,5.5-159.2,26.2-232,61.6-75.3,36.6-141.7,87.4-197.3,151.1-55.6,63.7-97.1,136.3-123.3,215.8-25.3,76.9-35.4,157-29.9,238.2,5.5,81.2,26.2,159.2,61.6,232,36.6,75.3,87.4,141.7,151.1,197.3s136.3,97.1,215.8,123.3c76.9,25.3,157,35.4,238.2,29.9,81.2-5.5,159.2-26.2,232-61.6,75.3-36.6,141.7-87.4,197.3-151.1,55.6-63.7,97.1-136.3,123.3-215.8,25.3-76.9,35.4-157,29.9-238.2-5.5-81.2-26.2-159.2-61.6-232-36.6-75.3-87.4-141.7-151.1-197.3h0c-63.7-55.6-136.3-97.1-215.8-123.3-63.3-20.8-128.8-31.3-195.4-31.3Z"/>
  <path class="st0" d="M2741.8,726.1c-29.2,0-58.5-10.2-82.2-30.9-44.8-39.1-96.6-65.8-154-79.2-67.2-15.7-109-83-93.2-150.2,15.7-67.2,83-109,150.2-93.2,47.5,11.1,93.6,28,137,50.1,44.6,22.7,86.6,51.1,124.6,84.3,52,45.4,57.3,124.4,11.9,176.4-24.7,28.3-59.4,42.8-94.2,42.8Z"/>
  <path class="st0" d="M855.7,1177.7c-61.2,0-121.5-9.7-179.9-28.9-73.4-24.2-140.3-62.4-198.9-113.5-58.6-51.2-105.4-112.4-139.2-181.8-32.6-67.1-51.7-138.9-56.7-213.6-5-74.7,4.2-148.4,27.6-219.2,24.2-73.4,62.4-140.3,113.5-198.9,51.2-58.6,112.4-105.4,181.8-139.2,67.1-32.6,138.9-51.7,213.6-56.7,74.7-5,148.4,4.2,219.2,27.6,73.4,24.2,140.3,62.4,198.9,113.5h0c58.6,51.2,105.4,112.4,139.2,181.8,32.6,67.1,51.7,138.9,56.7,213.6,5,74.7-4.2,148.4-27.6,219.2-24.2,73.4-62.4,140.3-113.5,198.9s-112.4,105.4-181.8,139.2c-67.1,32.6-138.9,51.7-213.6,56.7-13.1.9-26.3,1.3-39.3,1.3ZM856.8,274.6c-7.4,0-14.9.2-22.4.8-87,5.9-166.6,45.3-223.9,110.9-57.4,65.7-85.8,149.8-79.9,236.8,5.9,87,45.3,166.6,110.9,223.9,65.7,57.4,149.8,85.8,236.8,79.9,87-5.9,166.6-45.3,223.9-110.9,57.4-65.7,85.8-149.8,79.9-236.8-5.9-87-45.3-166.6-110.9-223.9h0c-60-52.4-135.4-80.7-214.4-80.7Z"/>
</svg>