<?xml version="1.0" encoding="UTF-8"?>
<svg id="Layer_1" xmlns="http://www.w3.org/2000/svg" version="1.1" viewBox="0 0 758.8 707.6">
  <!-- Generator: Adobe Illustrator 29.4.0, SVG Export Plug-In . SVG Version: 2.1.0 Build 152)  -->
  <defs>
    <style>
      .st0 {
        fill: #2a7d2e;
      }
    </style>
  </defs>
  <path class="st0" d="M34.5,234.5c-6.6-21.1-11.9-41.8-12.3-64.1C20.6,82.5,95.1,1.9,183.8.8c30.1-4.6,75.7,12.4,99.6,28.8,59,40.4,88.6,115.3,70.6,184.7-1.5,5.6-3.1,11.6-6.4,16.4,46.1,67.5,51.3,143.7,5.1,214-25,38.2-64.8,66.4-109.1,77.8-13.2,3.4-26.7,4.2-40,6.9v152.5h160.8v-108.4c-8.9,0-27.6,1.2-35.3-.5-14.6-3.4-14-22.9,2.6-24.5,8.9-.9,18.8,0,27.8,0h254.8c.4-16.8,0-33.6,0-50.4h-111.1c-18.9,0-38.3.8-57.1-.1-21.9-1.1-14.7-26.3-14.7-43.6,0-52.4-5.8-98.8,39.5-136.6,68.8-57.4,176.7-.2,169.1,79.2h53.7c10.9,0,33.3-5,35.4,10.4,1.2,8.9.2,26.3.2,36.1,0,11,1.3,36-1,45.9-3.2,13.6-25,8.9-35.2,8.9h-53.2s0,50.4,0,50.4h74.7c9.3,0,24.7-1.1,33.1,0,10.2,1.3,23.9,25.4-14.5,25.2h-23.6c0,0,0,108.4,0,108.4,7.3-.5,38.8-1.6,43.5,1.6,5.9,4.1,7.5,12.6,2.8,18.3-7.2,8.7-34.8,5.1-45.2,5.1H51.8c-9.9,0-44.2,3.2-51.1-3.2-4.8-4.5-5.3-13.3-.5-17.9,6.3-6.1,18.7-3.9,26.5-3.9h151.3c0,0,0-152.4,0-152.4C83.1,520.3,4.9,448.8,0,351.3c-1.7-33.8,10.7-90.6,34.5-116.9ZM183.8,25.7c-98.4,6.6-158.7,102.6-127.2,195.5,1.7,5.1,4.4,10.4,5.6,15.7l-.3.6c-5,9.8-12.6,18.6-17.9,28.8-56.6,107.6,18.6,225.3,134.1,237.1v-74.6l-46.9-46.7c-7.4-7.3-21.5-20.1-27.2-28.1-6-8.5-.3-20.5,10.7-19.7,8.8.6,53.6,49.8,63.3,58.6.6-31.8.3-63.8,0-95.5l-40.5-42.3c-7.7-7.9-32.6-25.6-18.6-38,12.5-11.1,27.4,11,34.8,18.8,8,8.4,16.8,16.6,24.2,25.4v-68c0-10.5-1.1-23.8.6-34,1.8-11.4,14.2-12.6,21.9-6.6,6.7,9.4,3.3,30.3,3.3,41.4v67.1c8.7-9.8,33.6-37.3,43.8-44.6,8-5.7,19.2,0,19.4,9.7.2,8.2-12.1,17.5-17.2,22.8-13.6,14-34.5,33.6-46,48.2-.4,6.8,0,13.6,0,20.4v33.7c0,13.2-1.2,28.5,0,41.4,9-11.1,44-47.6,54.1-55.4,8.2-6.4,21-1,21.3,9.6.3,12.5-63.3,62.7-75.4,81.8-.4,24.8,0,49.8,0,74.6,89.8-6,161.4-82.5,155.1-173.4-2.9-42.2-19-63-40.1-95.5,36.4-70.6,3-158.2-66.3-193.6-19.4-9.9-46.8-17.8-68.6-15.1ZM533.8,319.9c-42.5.9-73.1,36.5-77,76.9h157.7c2-41.2-38.7-82.5-80.7-76.9ZM456.8,422.9v49.2h246.3v-49.2h-246.3ZM398.8,573.5h-8.6v108.4h293.9v-108.4h-285.3Z"/>
</svg>