<?xml version="1.0" encoding="UTF-8"?>
<svg id="Calque_1" xmlns="http://www.w3.org/2000/svg" version="1.1" viewBox="0 0 224.5 203.2">
  <!-- Generator: Adobe Illustrator 29.5.1, SVG Export Plug-In . SVG Version: 2.1.0 Build 141)  -->
  <defs>
    <style>
      .st0 {
        fill: #3e8f50;
      }
    </style>
  </defs>
  <path class="st0" d="M223.5,60c4.7,47.2-5.9,88.8-44.2,120.1-7.2,5.9-14.8,12.3-23.3,15.4-10.3,3.7-24.7,16.4-31.4-2.1-5-13.8-2.9-26.8,16-35.5,15.4-7.1,28-23.1,38.2-37.7,7.2-10.3.7-18.3-13.4-19.5-42.7-3.5-42.8-3.9-42.6-50C123-7.2,117.4.2,172.2,0c60.5-.2,50.2-6.3,51.2,50.6,0,3.1,0,6.3,0,9.4Z"/>
  <path class="st0" d="M101.1,59.5c4.7,47.9-6.1,90.2-45.5,121.4-8.5,6.7-17.8,13.7-27.8,16.6-7.9,2.3-24.5.2-25.3-3-3.3-12.7-6-25.7,11.9-35.1,16.1-8.4,30-23,41.3-37.6,8.3-10.7,3.2-21-12.8-20.9-6.2,0-12.5-.6-18.7,0C5.4,102.8-.9,94,0,76.1c1-18.7.8-37.5.3-56.2C0,4.7,6.9-1,21.6-.5c19.5.6,39.1,1,58.5,0,17-.8,22.1,7,21.2,22.5-.7,12.4-.1,25-.1,37.5Z"/>
</svg>