<?xml version="1.0" encoding="UTF-8"?>
<svg id="Layer_1" xmlns="http://www.w3.org/2000/svg" version="1.1" viewBox="0 0 30.8 30.8">
  <!-- Generator: Adobe Illustrator 29.4.0, SVG Export Plug-In . SVG Version: 2.1.0 Build 152)  -->
  <defs>
    <style>
      .st0 {
        fill: #cecece;
      }
    </style>
  </defs>
  <g id="logo">
    <rect class="st0" x="6.2" y="12.2" width="4" height="12.7"/>
    <path class="st0" d="M25,16.9v8h-4v-6.3c0-.4,0-.7,0-1.1-.1-1.6-.7-2.4-2.1-2.4-.4,0-.7,0-1,.2-.8.4-1.4,1.4-1.4,3.2v6.3h-4v-12.7h3.8v1.6c1.2-1.4,2.6-2.2,4.7-2.1,2.9.5,3.9,2.4,4,5.2Z"/>
    <circle class="st0" cx="8.1" cy="8.2" r="2.3"/>
  </g>
  <path class="st0" d="M23.3,0H7.5C3.4,0,0,3.4,0,7.5v15.9c0,4.1,3.4,7.5,7.5,7.5h15.9c4.1,0,7.5-3.4,7.5-7.5V7.5c0-4.1-3.4-7.5-7.5-7.5ZM29.9,23.3c0,3.6-2.9,6.6-6.6,6.6H7.5c-3.6,0-6.6-2.9-6.6-6.6V7.5C.9,3.9,3.9.9,7.5.9h15.9c3.6,0,6.6,2.9,6.6,6.6v15.9Z"/>
</svg>