<?xml version="1.0" encoding="UTF-8"?>
<svg id="Layer_1" xmlns="http://www.w3.org/2000/svg" version="1.1" viewBox="0 0 203.3 205.7">
  <!-- Generator: Adobe Illustrator 29.4.0, SVG Export Plug-In . SVG Version: 2.1.0 Build 152)  -->
  <defs>
    <style>
      .st0 {
        fill: #3e8f50;
      }
    </style>
  </defs>
  <path class="st0" d="M97.2,194.4C43.6,194.4,0,150.8,0,97.2S43.6,0,97.2,0s93.2,39.5,96.9,89.9c.1,1.4-1,2.7-2.4,2.8-1.5,0-2.7-1-2.8-2.4-3.5-47.7-43.8-85.1-91.7-85.1S5.2,46.5,5.2,97.2s41.3,92,92,92,6.4-.2,9.5-.5c3.6-.4,7.2-1,10.5-1.7,25.6-5.7,47.6-22.1,60.4-45,.7-1.2,2.3-1.7,3.5-1,1.2.7,1.7,2.3,1,3.5-13.5,24.3-36.8,41.6-63.8,47.6-3.5.8-7.3,1.4-11.1,1.8-3.3.3-6.7.5-10.1.5Z"/>
  <path class="st0" d="M37.1,172.9c-1.4,0-2.6-1.1-2.6-2.5l-.5-27.2c0-1.1-.5-2.1-1.3-2.9l-11-10.5c-2.2-2.1-3.2-5.1-2.8-8l1.8-13.6L1.4,97.5c-1.3-.7-1.7-2.3-1-3.5.7-1.3,2.3-1.7,3.5-1l19.8,10.9c1.7.9,2.6,2.7,2.3,4.6l-1.9,14c-.2,1.3.3,2.6,1.3,3.6l11,10.5c1.8,1.7,2.9,4.1,2.9,6.6l.5,27.2c0,1.4-1.1,2.6-2.5,2.6h0ZM21.2,108.3h0,0ZM20.8,107.7s0,0,0,0h0Z"/>
  <path class="st0" d="M53,183.4c-.5,0-1.1-.2-1.5-.5-1.2-.8-1.4-2.5-.6-3.6l14.2-19.4c.5-.7.8-1.6.8-2.5v-2.4c0-3.6,2-6.8,5.2-8.4l2.3-1.1c1.4-.7,2.3-2.2,2.3-3.8v-5.5c0-2.3.7-4.4,2-6.1l.4-.5c.9-1.1,1.2-2.4.8-3.7-.4-1.3-1.3-2.4-2.6-2.9l-9.6-3.6c-3.2-1.2-5.5-4-6-7.3v-.9c-.4-1.5-1.6-2.9-3.1-3.3l-31.2-8.8c-1.2-.3-2.2-1.1-2.9-2.1l-6.1-9.2c-2-2.9-1.4-6.8,1.2-9.1l4.5-4c.8-.7,1.3-1.7,1.4-2.7l.5-5.1c.3-2.9,1.9-5.5,4.3-7l18.5-11.8c1.4-1,3.2-1.5,5-1.5h3.9c1,0,2-.4,2.8-1.1l2.1-1.8c1.1-1,1.6-2.3,1.4-3.7-.2-1.4-1.1-2.6-2.4-3.2l-5.5-2.5c-1.1-.5-2.5-.5-3.6,0l-8.5,4.3c-2.1,1-4.5.6-6.1-1l-6.8-6.6c-1-1-1.1-2.6,0-3.7,1-1,2.6-1.1,3.7,0l6.8,6.6,8.7-4.3c2.6-1.3,5.5-1.3,8.1-.2l5.5,2.5c2.9,1.3,4.9,3.9,5.4,7.1.5,3.2-.7,6.3-3.1,8.4l-2,1.8c-1.7,1.5-3.9,2.4-6.2,2.4h-3.9c-.8,0-1.6.2-2.2.6l-18.5,11.8c-1.1.7-1.8,1.8-1.9,3.1l-.5,5.1c-.2,2.3-1.4,4.5-3.2,6.1l-4.4,4c-.7.6-.8,1.6-.3,2.4l6.1,9.2,31.3,8.9c3.5,1,6.1,4,6.7,7.5v.9c.4,1.4,1.4,2.7,2.8,3.2l9.7,3.6c2.8,1.1,5,3.5,5.8,6.4.8,3,.1,6-1.8,8.3l-.4.5c-.6.8-1,1.7-1,2.8v5.5c.1,3.6-1.9,7-5.1,8.5l-2.2,1.1c-1.4.7-2.3,2.2-2.3,3.8v2.4c0,2-.6,3.9-1.8,5.5l-14.2,19.5c-.5.7-1.3,1.1-2.1,1.1Z"/>
  <path class="st0" d="M134.6,116.6h-13.8c-1.1,0-2.1-.3-3-1l-7.5-5.2c-3.9-2.7-5.2-8-2.9-12.2l1.7-3.1-1.4-2.7c-2.4-4.6-1.7-10.1,1.9-13.9l9-9.6c.8-.9,1.9-1.5,3.3-1.7l24.6-1.7c2.7-.2,5.6.4,8.1,1.9l5,3.1c.2.1.4.2.5.4,1,1,2.5,1.1,3.6.2l7.7-6.5-7.8-9.4c-.6-.7-1.5-1-2.3-.8l-7.2,1.5c-.6.1-1.1.2-1.5.2-1.8,0-3.6-.6-5-1.8-.9-.8-2.1-1-3-.6l-11.3,5.6c-2.6,1.3-5.9.8-8-1.3l-1-1c-1.7-1.7-2.7-4.1-2.6-6.6,0-2.5,1.2-4.8,3.1-6.4l5.4-4.7c0,0,.1-.1.2-.2,0,0,0,0,0,0l8.4-6.5v-3.3c0-3.4,1.7-6.5,4.6-8.3l6.3-3.9c1.2-.8,2.8-.4,3.6.8.8,1.2.4,2.8-.8,3.6l-6.3,3.9c-1.4.8-2.2,2.3-2.2,3.9v3.3c0,1.6-.8,3.2-2.1,4.1l-8.4,6.4s0,0,0,0l-5.4,4.6c-.8.7-1.2,1.6-1.3,2.7,0,1,.3,2,1.1,2.7l1,1c.5.5,1.3.6,2,.3l11.3-5.6c2.9-1.4,6.3-.9,8.7,1.3.5.4,1.3.6,2.1.5l7.2-1.5c2.7-.5,5.5.4,7.3,2.5l7.8,9.4c1.8,2.3,1.5,5.5-.7,7.3l-7.7,6.5c-3,2.6-7.5,2.5-10.4-.2l-4.7-2.9c-1.5-.9-3.2-1.3-4.9-1.2l-24.4,1.7-9,9.7c-2,2.1-2.5,5.3-1.1,7.9l1.4,2.7c.8,1.5.8,3.4,0,5l-1.7,3.1c-1,1.9-.4,4.2,1.3,5.5l7.5,5.2h13.8c1.4,0,2.6,1.2,2.6,2.6s-1.2,2.6-2.6,2.6Z"/>
  <path class="st0" d="M87.7,35.2c-.6,0-1.3,0-1.9-.3-2.1-.7-3.6-2.3-4.2-4.4l-.9-3.6c-.4-1.6-.2-3.5.8-4.9l2-3.2c.3-.5.2-1.2-.3-1.5l-13.4-8.8c-1.2-.8-1.5-2.4-.7-3.6.8-1.2,2.4-1.5,3.6-.7l13.4,8.8c2.9,1.9,3.7,5.8,1.8,8.6l-2,3.2c-.2.2-.2.6-.1.8l.9,3.6c.1.5.5.7.7.7.2,0,.6.1,1.1-.2l8.8-7.4c2.1-1.8,4.7-2.9,7.3-3.2l3.8-.5c.4,0,.6-.2.8-.5l8.8-14.1c.8-1.2,2.4-1.6,3.6-.8,1.2.8,1.6,2.4.8,3.6l-8.8,14.1c-1.1,1.6-2.7,2.7-4.6,2.9l-3.8.5c-1.7.2-3.3.9-4.6,2l-8.7,7.4c-1.2,1-2.6,1.5-4.1,1.5Z"/>
  <path class="st0" d="M148.4,205.7c-12.2,0-23.6-4.3-29.5-11.2-2.1-2-21.3-21.1-3.4-48.8,11.5-17.8,29-25.1,44.4-31.6,10.9-4.6,21.1-8.9,27.7-16.2.5-.6,1.3-.9,2.1-.9.8,0,1.5.5,2,1.2.3.4,25,39.6,1.7,81-8.5,15.2-23.2,24.8-40.2,26.3-1.6.1-3.1.2-4.7.2ZM188.9,103.9c-7.2,6.6-16.9,10.7-27,15-15.4,6.5-31.4,13.2-42.1,29.7-16.3,25.2,1.9,41.5,2.7,42.2.1,0,.2.2.3.3,5.6,6.7,17.6,10.5,29.9,9.3,9-.8,25.6-5,36.2-23.7,18.2-32.4,5-63.4,0-72.8Z"/>
</svg>