<?xml version="1.0" encoding="UTF-8"?>
<svg id="Calque_1" xmlns="http://www.w3.org/2000/svg" version="1.1" viewBox="0 0 1845 2436.3">
  <!-- Generator: Adobe Illustrator 29.4.0, SVG Export Plug-In . SVG Version: 2.1.0 Build 152)  -->
  <defs>
    <style>
      .st0 {
        fill: #2a7d2e;
      }
    </style>
  </defs>
  <path class="st0" d="M1357.4,868.7c16-1.4,32.4,2.3,40.6,17.7,13.8,25.9,18.5,94.8-22.9,112.3-59.2,8.1-57.1-79.2-44.8-107.8,5.2-12,15.5-17.5,27-22.2Z"/>
  <path class="st0" d="M473.9,868.7c55.8,2.4,48.4,96.3,34.8,117.9-6.6,10.5-17,13.8-28.3,16.7-62.7-3.7-60.9-123-6.4-134.7Z"/>
  <path class="st0" d="M1579.4,732.6c24.2-3.4,42.6,10.4,46.5,35,6.4,40.2,11.2,107.7-26.1,133.5-69.9,13.7-49.3-111.6-49.1-149.8,9-9.1,17.1-13.9,28.7-18.6Z"/>
  <path class="st0" d="M250.2,732.6c64.9-6.1,45.7,136.2,37.4,150.2-6.8,11.5-18.6,15.2-30.7,18.3-62.6,2.2-42.6-135.9-34.7-150.5,6-11,16.9-14.4,28-18Z"/>
  <path class="st0" d="M911.9.2c71.8-4.6,195.3,65.9,186.7,139.9-2.6,22.7-24.3,34.3-45.7,29.3-29.8-7-32.2-76.2-117.7-91.7-111-4.5-104.6,85.3-148.2,92.1-20.7,3.3-39.8-13.1-42.1-33.5C737.2,68.2,849.1,4.2,911.9.2Z"/>
  <path class="st0" d="M920.7,304.7c49.9-44.5,81.4-68.6,144.6-93,236.2-91,493.5,75.2,550,313,5.7,24,19.4,100.7,8.4,123.2-9.4,19.1-35,26.3-53.1,15.2-25.4-15.6-19.4-48.9-21.2-74.3-19.2-266.4-352-433.7-559.1-240.9-10.8,10-21.3,20.3-28.9,33.1.8,48.6,0,97.3,0,146,146.5-143.1,405-59.2,439.2,142.1,7.9,46.5,21.8,124.2-30.7,142.3-82.9-20.4-1.4-125.1-89.7-219.6-68.9-73.7-186.5-82.4-260.9-11.9-52.6,49.9-56,98.4-57.9,166.5,10.8,1.4,22.7.4,33.7.3l59.8-.4c43.1-.2,80.7,2,113.1,34.1,46.5,46,49.5,124.3,2,170.4-37.6,36.5-79.1,31.9-127.3,31.6v245.3c92.3,1.2,184.9,0,277.2,0l1.2-1.2c20.3-20.8,151.8-152,166.3-157.8,20.7-8.3,180.5-4,213.6-4.4,113.9-1.2,173.7,126.3,93.5,205.9-37.4,37.1-80,34.3-129.2,34,.5,25.5.4,51.3-.3,76.8-6.3,220.5-182.8,423.9-404,450.3-40.7,4.9-84.2,3.8-125.2,2.6.4,33.3,0,66.6,0,99.9l9.9-.6c86.8-4.7,138.4,87.4,141.8,165.4,35.9-1.3,72.3,0,108.2,0h333.9c44.3-.4,110.2-13.5,112.5,50.4,1.9,53.1,5.7,199.5-1.4,246.7-7.2,47.7-47,41.3-83.2,40.9l-400.3-.3H165c-46.1,0-92.6,1.3-138.7,0-36.7-32.6-24.4-84.2-24.1-128.2.2-32.4-9.6-176.1,10.7-195.6,22-21.1,63.7-14.2,91.3-14h449.7c8.6-85.6,53.4-171,152.2-164.7-1.1-33.1,0-66.7,0-99.9h-13.3c-34.2,0-68.2,0-102.3-4.1-202.7-24.6-375.7-182.8-404.1-387.1-6.4-46-6.2-92.3-6.2-138.6-42.1,3-82.4,3-117.7-23.2-54.3-40.2-61.1-116.6-21.3-169.4,47.2-62.6,135.9-46,204-46.4,25.4-.1,85.7-3.8,105.8,2.1,25.2,7.4,151.4,134.9,185.4,160.3,27.9-2.2,57.5,0,85.6,0h180.9c1-31.2.1-62.6,0-93.8v-151.4c-47.2.3-90.6,3.3-126.8-32.2-46.9-45.9-46.3-124-.1-170.2,36.3-36.3,78.4-33.8,125.9-33.8h82.4c4.7-117.8-57.4-220.9-188.1-214.8-95.4,4.5-173.4,89.3-180.5,182.7-2.3,30.3,10.1,90.6-37.8,91-95.4.9-33.5-358,235.3-349.9,61.7,1.9,128.4,25.9,171.1,71.6,0-48.6,1.5-97.4,0-146-14-21.1-36.2-39.1-56.2-54.2-210.4-159.1-507.1,11.4-534.3,258.6-2.1,19.3,3.1,49.4-9.6,65.2-12.9,16-39.7,17.1-55.2,4.5-17.7-14.3-12.5-44.4-10.8-64.3,18.1-213,183.1-384.2,398.6-403.8,118.3-5.9,219.8,37.8,303.8,117.6ZM287.4,1466l-14.8,1c-.9,8.6,3.6,20.1,6.4,28.3,49.6,143.4,182.6,244.4,333,260.5,37.4,4,76.3,2,113.9,2h402.6c137.4.1,225.9-.1,334.9-105.4,53.8-48.7,93.8-115.7,110.9-186.3h-863.4c-141.1,0-282.4-1.8-423.5,0ZM1219.3,2175.9c-126.8-1.6-253.8,0-380.6,0H79.4c0,60.4,1.4,121.2,0,181.5h1686.3v-181.5c-21.2-1.5-42.4-.2-63.6,0h-482.9ZM328.3,1304.2c-23.8,1.9-47.7-.3-71.5,0v84.4c140.3-2.3,281.1,0,421.5,0h843.7c22.1-.3,44.4-.9,66.5,0,0-28.1.5-56.3,0-84.4H452.9c-41,0-83.7,2.6-124.6,0ZM706.1,2009c-49.2,6.2-75.1,41.6-74.3,89.7,55.2,2.1,111.1,0,166.4,0h337.8s75.6,0,75.6,0c-.1-93.9-69.2-89.7-141.9-89.7h-288.4c-23.9-.2-51.9-4.4-75.3,0ZM751.7,823c-49.7,15.3-43,81.3,9,83,100.2,3.3,234,5.1,333.7-.1,48.2-13.2,43.2-79.3-8.4-82.6-40.6-2.6-82.8-.4-123.6-.3h-210.8ZM781.9,1833.9c0,33.3-.6,66.6,0,99.9,92.5,0,185.7-2.3,278.2,0v-99.9c-92.6,0-185.7-2-278.2,0ZM1522.1,1141.5c-17.7,8.4-76.6,69.1-91.6,86.3h235c44,.1,78.6,5.9,90.5-43.9-14.4-55.7-58.5-42.6-103.5-42.6l-130.4.3ZM128.4,1141.5c-47.2,15.1-46.9,84.2,7.5,87.1,23.4,1.3,47.6-1.1,71.1-1.1l176.8.2c11.9-.5,23.7-.4,35.6,0-28.9-29.9-60-58.6-91.1-86.3-66.4,0-133.6-2.2-200,0ZM879.6,982.4c-2.3,81.2-1.7,164.1,0,245.3,29.4.8,58.8-.4,88.2,0v-245.3h-88.2Z"/>
</svg>