<?xml version="1.0" encoding="UTF-8"?>
<svg id="ICONS" xmlns="http://www.w3.org/2000/svg" version="1.1" viewBox="0 0 224 224">
  <!-- Generator: Adobe Illustrator 29.4.0, SVG Export Plug-In . SVG Version: 2.1.0 Build 152)  -->
  <defs>
    <style>
      .st0 {
        fill: #2a7d2e;
      }
    </style>
  </defs>
  <g id="blockage">
    <path class="st0" d="M28,88H4c-2.2,0-4-1.8-4-4V20c0-2.2,1.8-4,4-4h24c2.2,0,4,1.8,4,4v64c0,2.2-1.8,4-4,4ZM8,80h16V24H8v56Z"/>
    <g>
      <path class="st0" d="M204,67.9h-48c-1.9,0-3.5-1.3-3.9-3.1l-8-35.9c-.5-2.2.9-4.3,3-4.8,2.2-.5,4.3.9,4.8,3l7.3,32.7h41.6l7.3-32.7c.5-2.2,2.6-3.5,4.8-3,2.2.5,3.5,2.6,3,4.8l-8,35.9c-.4,1.8-2,3.1-3.9,3.1Z"/>
      <path class="st0" d="M220,32h-36c-2.2,0-4-1.8-4-4s1.8-4,4-4h32V8h-72v16h24c2.2,0,4,1.8,4,4s-1.8,4-4,4h-28c-2.2,0-4-1.8-4-4V4c0-2.2,1.8-4,4-4h80c2.2,0,4,1.8,4,4v24c0,2.2-1.8,4-4,4Z"/>
    </g>
    <path class="st0" d="M136,176c-13.2,0-24-10.8-24-24v-64c0-30.9-25.1-56-56-56h-28c-2.2,0-4-1.8-4-4s1.8-4,4-4h28c35.3,0,64,28.7,64,64v64c0,8.8,7.2,16,16,16s16-7.2,16-16v-88c0-2.2,1.8-4,4-4s4,1.8,4,4v88c0,13.2-10.8,24-24,24Z"/>
    <path class="st0" d="M136,224c-39.7,0-72-32.3-72-72v-64c0-4.4-3.6-8-8-8h-28c-2.2,0-4-1.8-4-4s1.8-4,4-4h28c8.8,0,16,7.2,16,16v64c0,35.3,28.7,64,64,64s64-28.7,64-64v-88c0-2.2,1.8-4,4-4s4,1.8,4,4v88c0,39.7-32.3,72-72,72Z"/>
    <g>
      <path class="st0" d="M116,108h-48c-2.2,0-4-1.8-4-4s1.8-4,4-4h48c2.2,0,4,1.8,4,4s-1.8,4-4,4Z"/>
      <path class="st0" d="M204,108h-48c-2.2,0-4-1.8-4-4s1.8-4,4-4h48c2.2,0,4,1.8,4,4s-1.8,4-4,4Z"/>
    </g>
    <g>
      <g>
        <path class="st0" d="M136,208c-6.6,0-12-5.4-12-12s5.4-12,12-12,12,5.4,12,12-5.4,12-12,12ZM136,192c-2.2,0-4,1.8-4,4s1.8,4,4,4,4-1.8,4-4-1.8-4-4-4Z"/>
        <path class="st0" d="M92,164c-6.6,0-12-5.4-12-12s5.4-12,12-12,12,5.4,12,12-5.4,12-12,12ZM92,148c-2.2,0-4,1.8-4,4s1.8,4,4,4,4-1.8,4-4-1.8-4-4-4Z"/>
        <path class="st0" d="M180,164c-6.6,0-12-5.4-12-12s5.4-12,12-12,12,5.4,12,12-5.4,12-12,12ZM180,148c-2.2,0-4,1.8-4,4s1.8,4,4,4,4-1.8,4-4-1.8-4-4-4Z"/>
      </g>
      <g>
        <g>
          <path class="st0" d="M112,184c-1,0-2.1-.4-2.8-1.2-.2-.2-.4-.4-.5-.6-.1-.2-.3-.5-.4-.7,0-.2-.2-.5-.2-.8,0-.3,0-.5,0-.8s0-.5,0-.8c0-.3.1-.5.2-.8.1-.2.2-.5.4-.7.1-.2.3-.4.5-.6.9-.9,2.3-1.4,3.6-1.1.3,0,.5.1.8.2.2.1.5.2.7.4.2.1.4.3.6.5.2.2.3.4.5.6.1.2.3.4.4.7,0,.2.2.5.2.8,0,.3,0,.5,0,.8,0,1-.4,2.1-1.2,2.8-.2.2-.4.3-.6.5-.2.1-.5.3-.7.4-.2.1-.5.2-.8.2-.3,0-.5,0-.8,0Z"/>
          <path class="st0" d="M96,184c-.3,0-.5,0-.8,0-.3,0-.5-.1-.8-.2-.2,0-.5-.2-.7-.4-.2-.2-.4-.3-.6-.5-.7-.7-1.2-1.8-1.2-2.8s0-.5,0-.8c0-.3.1-.5.2-.8.1-.2.2-.5.4-.7.1-.2.3-.4.5-.6.2-.2.4-.4.6-.5.2-.1.5-.3.7-.4.2,0,.5-.2.8-.2.5-.1,1-.1,1.6,0,.3,0,.5.1.8.2.2.1.5.2.7.4.2.1.4.3.6.5.2.2.3.4.5.6.1.2.3.4.4.7,0,.2.2.5.2.8,0,.3,0,.5,0,.8s0,.5,0,.8c0,.3-.1.5-.2.8-.1.2-.2.5-.4.7-.2.2-.3.4-.5.6-.2.2-.4.3-.6.5-.2.1-.5.3-.7.4-.2.1-.5.2-.8.2-.3,0-.5,0-.8,0Z"/>
          <path class="st0" d="M104,196c-.3,0-.5,0-.8,0s-.5-.1-.8-.2c-.2,0-.5-.2-.7-.4-.2-.2-.4-.3-.6-.5-.7-.8-1.2-1.8-1.2-2.8s0-.5,0-.8c0-.3.1-.5.2-.8.1-.2.2-.5.4-.7.1-.2.3-.4.5-.6.9-.9,2.3-1.4,3.6-1.1.3,0,.5.1.8.2.2.1.5.2.7.4.2.1.4.3.6.5.2.2.3.4.5.6.1.2.3.4.4.7,0,.2.2.5.2.8,0,.3,0,.5,0,.8,0,1-.4,2.1-1.2,2.8-.8.7-1.8,1.2-2.8,1.2Z"/>
        </g>
        <g>
          <path class="st0" d="M176,184c-.3,0-.5,0-.8,0s-.5-.1-.8-.2c-.2,0-.5-.2-.7-.4-.2-.2-.4-.3-.6-.5-.2-.2-.4-.4-.5-.6-.1-.2-.3-.5-.4-.7,0-.2-.2-.5-.2-.8,0-.3,0-.5,0-.8,0-1,.4-2.1,1.2-2.8.9-.9,2.3-1.4,3.6-1.1.3,0,.5.1.8.2.2.1.5.2.7.4.2.1.4.3.6.5.2.2.3.4.5.6.1.2.3.4.4.7,0,.2.2.5.2.8,0,.3,0,.5,0,.8s0,.5,0,.8c0,.3-.1.5-.2.8-.1.2-.2.5-.4.7-.2.2-.3.4-.5.6-.8.7-1.8,1.2-2.8,1.2Z"/>
          <path class="st0" d="M160,184c-1,0-2.1-.4-2.8-1.2-.2-.2-.4-.4-.5-.6-.2-.2-.3-.5-.4-.7,0-.2-.2-.5-.2-.8,0-.3,0-.5,0-.8s0-.5,0-.8c0-.3.1-.5.2-.8.1-.2.2-.5.4-.7.1-.2.3-.4.5-.6.9-.9,2.3-1.4,3.6-1.1.3,0,.5.1.8.2.2.1.5.2.7.4.2.1.4.3.6.5.2.2.3.4.5.6.1.2.3.4.4.7,0,.2.2.5.2.8,0,.3,0,.5,0,.8s0,.5,0,.8c0,.3-.1.5-.2.8-.1.2-.2.5-.4.7-.2.2-.3.4-.5.6-.2.2-.4.3-.6.5-.2.1-.5.3-.7.4-.2.1-.5.2-.8.2-.3,0-.5,0-.8,0Z"/>
          <path class="st0" d="M168,196c-.3,0-.5,0-.8,0s-.5-.1-.8-.2c-.2,0-.5-.2-.7-.4-.2-.1-.4-.3-.6-.5-.7-.8-1.2-1.8-1.2-2.8s.4-2.1,1.2-2.8c.2-.2.4-.4.6-.5.2-.1.5-.3.7-.4.2,0,.5-.2.8-.2.5-.1,1-.1,1.6,0,.3,0,.5.1.8.2.2.1.5.2.7.4.2.1.4.3.6.5.8.8,1.2,1.8,1.2,2.8s-.4,2.1-1.2,2.8c-.2.2-.4.3-.6.5-.2.2-.5.3-.7.4-.2.1-.5.2-.8.2-.2,0-.5,0-.8,0Z"/>
        </g>
        <g>
          <path class="st0" d="M180,128c-.3,0-.5,0-.8,0-.3,0-.5-.1-.8-.2-.2,0-.5-.2-.7-.4-.2-.2-.4-.3-.6-.5-.7-.7-1.2-1.8-1.2-2.8s.4-2.1,1.2-2.8c.2-.2.4-.4.6-.5.2-.1.5-.3.7-.4.2,0,.5-.2.8-.2,1.3-.3,2.7.2,3.6,1.1.7.8,1.2,1.8,1.2,2.8s-.4,2.1-1.2,2.8c-.7.7-1.8,1.2-2.8,1.2Z"/>
          <path class="st0" d="M92,128c-1,0-2.1-.4-2.8-1.2-.7-.8-1.2-1.8-1.2-2.8s.4-2.1,1.2-2.8c.8-.7,1.8-1.2,2.8-1.2s2.1.4,2.8,1.2c.7.8,1.2,1.8,1.2,2.8s-.4,2.1-1.2,2.8c-.8.7-1.8,1.2-2.8,1.2Z"/>
        </g>
      </g>
    </g>
  </g>
</svg>