<?xml version="1.0" encoding="UTF-8"?>
<svg id="Layer_1" xmlns="http://www.w3.org/2000/svg" version="1.1" viewBox="0 0 30.8 30.8">
  <!-- Generator: Adobe Illustrator 29.4.0, SVG Export Plug-In . SVG Version: 2.1.0 Build 152)  -->
  <defs>
    <style>
      .st0 {
        fill: #cecece;
      }
    </style>
  </defs>
  <path class="st0" d="M17.2,13.8v1.6h4.9l-.8,4.6h-4.1v10.4h-5.4s0-10.4,0-10.4h-3.1v-4.6h3.1v-2.5c0-.8,0-1.6.3-2.4.4-1.5,1.1-2.7,2.3-3.4,1.4-1,3.3-1.2,4.8-1.2s2.8.2,3.2.4v4.1c-.8,0-1.5,0-2.2,0-.3,0-.5,0-.8,0-2.3.4-2.2,2.6-2.2,3.2Z"/>
  <path class="st0" d="M23.3,0H7.5C3.4,0,0,3.4,0,7.5v15.9c0,4.1,3.4,7.5,7.5,7.5h15.9c4.1,0,7.5-3.4,7.5-7.5V7.5c0-4.1-3.4-7.5-7.5-7.5ZM29.9,23.3c0,3.6-2.9,6.6-6.6,6.6H7.5c-3.6,0-6.6-2.9-6.6-6.6V7.5C.9,3.9,3.9.9,7.5.9h15.9c3.6,0,6.6,2.9,6.6,6.6v15.9Z"/>
</svg>