<?xml version="1.0" encoding="UTF-8"?>
<svg id="Calque_1" xmlns="http://www.w3.org/2000/svg" version="1.1" viewBox="0 0 99.2 122.9">
  <!-- Generator: Adobe Illustrator 29.4.0, SVG Export Plug-In . SVG Version: 2.1.0 Build 152)  -->
  <defs>
    <style>
      .st0 {
        fill: #2a7d2e;
        fill-rule: evenodd;
      }
    </style>
  </defs>
  <g id="Layer_x5F_1">
    <g id="_353414472">
      <path class="st0" d="M83.1,122.8H16.1C7.2,122.8,0,115.6,0,106.8v-41.2c0-1.1.9-1.9,1.9-1.9s1.9.9,1.9,1.9v41.2c0,6.8,5.5,12.2,12.2,12.2h67.1c6.8,0,12.2-5.5,12.2-12.2v-41.2c0-1.1.9-1.9,1.9-1.9s1.9.9,1.9,1.9v41.2c0,8.9-7.2,16.1-16.1,16.1Z"/>
      <path class="st0" d="M59.8,79.7c-3.9,0-7.6-2-11.1-4-3.2-1.8-6.3-3.5-9.2-3.5s-5.9,1.7-9.1,3.5c-3.5,2-7.2,4-11.1,4s-7.6-2-11.1-4c-2.4-1.3-4.6-2.6-6.8-3.2-1-.3-1.6-1.4-1.3-2.4s1.4-1.7,2.4-1.4c2.6.8,5.1,2.2,7.6,3.5,3.2,1.9,6.3,3.6,9.2,3.6s5.9-1.7,9.2-3.6c3.5-1.9,7.1-4,11-4s7.6,2.1,11.1,4c3.2,1.9,6.3,3.6,9.2,3.6s5.9-1.7,9.1-3.6c3.6-1.9,7.2-4,11.1-4s7.6,2.1,11.1,4c2.4,1.4,4.6,2.6,6.8,3.2,1,.3,1.6,1.3,1.3,2.4-.3,1-1.3,1.6-2.4,1.3-2.6-.7-5.1-2.2-7.6-3.5-3.2-1.8-6.3-3.5-9.2-3.5s-5.9,1.7-9.1,3.5c-3.5,2-7.2,4-11.1,4Z"/>
      <path class="st0" d="M36.6,93.5c-1.9,0-3.6-.9-5.1-1.8-1.2-.6-2.3-1.3-3.2-1.3s-2.1.6-3.2,1.3c-1.5.9-3.2,1.8-5,1.8s-3.6-.9-5.1-1.8c-.9-.5-1.7-1-2.5-1.2-1-.3-1.6-1.3-1.3-2.4.3-1,1.3-1.6,2.4-1.3,1.2.4,2.3.9,3.3,1.6,1.2.6,2.4,1.3,3.2,1.3s2-.7,3.2-1.4c1.5-.8,3.2-1.8,5.1-1.8s3.6,1,5,1.8c1.2.6,2.4,1.4,3.2,1.4s2.1-.7,3.2-1.4c1.5-.8,3.2-1.8,5.1-1.8s3.6,1,5.1,1.8c.9.6,1.7,1,2.4,1.2,1.1.3,1.7,1.4,1.4,2.4s-1.4,1.6-2.4,1.3c-1.2-.3-2.3-.9-3.4-1.5-1.1-.6-2.3-1.3-3.2-1.3s-2.1.6-3.2,1.3c-1.5.9-3.2,1.8-5.1,1.8Z"/>
      <path class="st0" d="M70.9,111.6c-1.9,0-3.5-.9-5-1.8-1.2-.6-2.4-1.3-3.2-1.3s-2,.6-3.2,1.3c-1.5.9-3.2,1.8-5.1,1.8s-3.6-.9-5-1.8c-.9-.5-1.8-.9-2.5-1.2-1-.3-1.7-1.4-1.4-2.4s1.4-1.6,2.4-1.4c1.2.4,2.3,1,3.4,1.6,1.2.6,2.3,1.3,3.2,1.3s2.1-.6,3.2-1.3c1.4-.9,3.2-1.8,5-1.8s3.6.9,5.1,1.8c1.2.6,2.3,1.3,3.2,1.3s2.1-.6,3.2-1.3c1.5-.9,3.2-1.8,5-1.8s3.6.9,5.1,1.8c.9.5,1.7,1,2.5,1.2,1,.3,1.6,1.3,1.3,2.4-.3,1-1.3,1.6-2.4,1.3-1.2-.4-2.2-.9-3.3-1.6-1.2-.6-2.3-1.3-3.2-1.3s-2,.7-3.2,1.3c-1.5.9-3.2,1.8-5.1,1.8Z"/>
      <path class="st0" d="M87.9,34.8h-34.2c-6.6,0-11.9-5.3-11.9-11.9s4.8-11.4,10.9-11.9c1-5.5,5.8-9.7,11.7-9.7s4.9.8,6.8,2.2c2.2-2.2,5.3-3.5,8.5-3.5,6.5,0,11.7,5.2,11.9,11.6,4.8,1.6,8.2,6.1,8.2,11.4s-5.4,11.9-11.9,11.9ZM53.7,14.8c-4.5,0-8.1,3.7-8.1,8.1s3.7,8.1,8.1,8.1h34.2c4.5,0,8.1-3.6,8.1-8.1s-2.7-7.3-6.6-8c-1-.2-1.7-1.1-1.6-2.1,0-.3,0-.6,0-.9,0-4.5-3.6-8.1-8.1-8.1s-5.2,1.3-6.7,3.5c-.3.4-.8.7-1.4.8s-1.2-.1-1.5-.6c-1.6-1.5-3.6-2.4-5.8-2.4-4.4,0-8,3.5-8.1,7.8,0,.5-.2,1-.6,1.4-.4.3-.9.5-1.4.4h-.6Z"/>
      <path class="st0" d="M38.1,54.6c-3,0-5-.9-6-2.7-2-3.7,1.3-9.1,3.5-12.8.3-.5.6-.9.8-1.4.4-.6,1-.9,1.7-.9h0c.7,0,1.4.4,1.7.9.2.4.4.9.8,1.4,2.2,3.6,5.5,9.1,3.5,12.7-1,1.8-3,2.7-6,2.7ZM38.1,42.5c-1.4,2.4-3.4,6.2-2.6,7.6.2.4,1.2.7,2.6.7s2.4-.3,2.7-.7c.8-1.4-1.2-5.2-2.7-7.6Z"/>
      <path class="st0" d="M54.4,69c-3,0-5-.9-6-2.7-2.1-3.7,1.3-9.1,3.5-12.8.4-.5.6-.9.9-1.4s.9-.9,1.7-.9h0c.7,0,1.3.4,1.7.9.2.4.5.9.9,1.4,2.2,3.6,5.5,9.1,3.5,12.7-1,1.8-3,2.7-6,2.7ZM54.4,56.8c-1.4,2.4-3.5,6.2-2.7,7.6.3.4,1.2.7,2.7.7s2.4-.3,2.7-.7c.8-1.4-1.3-5.2-2.7-7.6Z"/>
      <path class="st0" d="M68.9,55.9c-3,0-5-.9-6-2.7-2-3.6,1.3-9.1,3.5-12.7.4-.6.6-1,.8-1.4.4-.6,1-1,1.7-1h0c.6,0,1.3.4,1.7,1,.2.4.5.9.8,1.4,2.2,3.6,5.5,9.1,3.5,12.7s-3,2.7-6,2.7ZM68.9,43.7c-1.4,2.4-3.5,6.2-2.7,7.6.3.5,1.2.8,2.7.8s2.4-.3,2.6-.8c.8-1.4-1.2-5.2-2.6-7.6Z"/>
      <path class="st0" d="M86.8,65c-3,0-5-.9-6-2.7-2.1-3.7,1.3-9.1,3.5-12.8.4-.5.6-1,.9-1.4.3-.6.9-.9,1.7-.9h0c.7,0,1.4.4,1.7.9.2.4.5.9.9,1.4,2.2,3.7,5.5,9.1,3.5,12.8-1,1.8-3,2.7-6,2.7ZM86.8,52.8c-1.4,2.4-3.5,6.2-2.7,7.6.3.4,1.2.7,2.7.7s2.4-.3,2.7-.7c.8-1.4-1.2-5.3-2.7-7.6Z"/>
    </g>
  </g>
</svg>