<?xml version="1.0" encoding="UTF-8"?>
<svg id="Calque_1" xmlns="http://www.w3.org/2000/svg" version="1.1" viewBox="0 0 733.9 645.4">
  <!-- Generator: Adobe Illustrator 29.4.0, SVG Export Plug-In . SVG Version: 2.1.0 Build 152)  -->
  <defs>
    <style>
      .st0 {
        fill: #2a7d2e;
      }
    </style>
  </defs>
  <path class="st0" d="M225.8,61.3c4.4-26.4,4.9-58.5,37.2-60.4,19.4,0,51-6.1,62.2,14.7,4.4,8.3,9.3,35.3,11.1,45.7,20.3,1.9,47.1,15.5,64.9,25.7,15.1-10.2,38.4-32.8,57.8-21.1,4.2,2.5,35.6,33.3,39,37.8,15.5,20.5-12.5,44.4-22.6,60.1,12.2,20,20.1,39.6,26.4,62.1,19,5,54,2.2,60.2,26.9,2,7.8,2.2,44.4.7,52.2-3.9,19.5-33.9,25.7-51.8,29.6-6.2-1.4-9.9-6-9.8-12.6.3-14.3,34.7-12.8,39.5-19.2,3.2-4.3,1.9-39.9.8-44.7-1.9-8.2-44.7-8.1-54.2-14.4-3.8-2.5-17.3-46.4-21.8-55.7-12.5-25.5-18.9-21.6.3-47.6l16.1-21.9c-4.5-6.3-29.2-31.8-35.2-35.5-12.2,4.7-33.9,25.6-44.4,26.2-2.6.1-48.7-21.7-58.7-24.8-8.8-2.7-22.6-2.2-26-12.5-3.5-10.6-9.4-39.5-9.7-49.2-6-.4-12.2,0-18.2,0h-34c-2.6,10.7-4.5,21.7-6.6,32.5-3.9,20.2-1,21.7-21.7,27.6-13.6,3.9-26.7,8.9-39.2,15.6-22.1,12-17.3,17.1-40.8,2.5-9.5-5.9-19-12.4-29-17.5l-.8-.4c-11.6,11.7-23.4,23.1-34.3,35.5,7.2,13.6,20.8,31.2,24.6,45.4-3.1,13.3-19.3,37.2-25.1,56.9-1.9,6.4-1.9,17.5-8.8,20.7-9.9,4.6-40.7,11.4-51.8,13.6.3,16.4-.2,32.9,0,49.3,15.8,3.6,36,6.2,51,11.1,7.1,2.3,7.2,9.5,8.9,15.7,8.1,28.2,17.9,38.6,29.9,61.5,1.9,11.7-22.3,35.7-28.7,49.1,5.7,9.5,25.5,27.6,34.3,35.7,6.6-4.6,41.3-26.4,47-27.9,3.1-.8,45.1,20.5,54,23.3,7.1,2.3,16.6,3.5,22.8,7.5,4.8,3.1,12.7,46.1,14.2,54.3,17.4.2,34.8,0,52.2,0,3.6-15.1,7.1-40.5,12.8-53.8,11.5-7.3,38.3-11.8,57.2-23.3,5.9-3.6,11.5-8,18-10.2,11.2,3.1,46.1,26.8,60.7,34.1,10.9,5.5,8.9,18.4-2.7,20.8-9.9,2.1-47.9-25.3-58-31.5-21.6,13.2-35.8,17.5-58,26.7-4.2,17.5-6,52.9-26.4,57.6-6.2,1.4-50.9,1-57.8-.2-22.7-3.8-23.6-39.2-27.7-57.4-21.1-4.9-40.2-14.6-59-25-16.3,8.4-43.1,34.7-62,21.9-4.2-2.9-36.9-35.5-39.6-39.5-12.9-19.1,12.1-44.8,23-59.8-11.3-19.4-21.1-38.8-27.4-60.5-18.4-4.7-53.4-4.2-59.2-26.1-2-7.3-2.2-45.8-.9-54.3,3.6-23.8,40.6-26.2,60.1-30.9,3.8-21.2,14.2-40.5,23.8-59.5-20.8-40.1-36.6-40.6,0-78.1,41.7-42.6,39.5-19.1,82.2,1.2,16.8-11.9,38.7-21.6,59-25.7Z"/>
  <path class="st0" d="M318.8,401.5c-74.3,23.9-155.8-30.7-165-107.4-8.9-74,41.7-134.9,115-143.4,31.4-.7,57.9,3.8,84.8,22,8.2,5.6,53.8,43.1,21.5,46.3-5.6.6-8.6-5.8-11.7-9.5-43.1-50.5-122.8-52-165.3,0-40.8,49.9-29.3,115.3,19.4,154.9,23.8,19.1,55.9,24.7,85.5,19.4,5.4,5.8,10.5,11.9,15.8,17.8Z"/>
  <path class="st0" d="M415.7,292.6c-27.1-23.6-91.9-58.7-18.7-66.6,59-7.6,109.1,57.1,95.9,115.2,15.5,14.6,30.3,30.2,45.3,45.3l70.4,70.4c60.1-21.4,125.2,21.3,125.3,85.7,0,9.6-2,31.4-9.3,38.2-8.3,7.8-21.3-10.2-26.4-15.2-13.5-13.3-26.7-26.8-39.8-40.4-11.5,4.2-23.1,7.9-34.7,11.7-3.1,10.5-5.5,21.2-8.4,31.8,13.7,11.8,37.9,36.5,49.7,50.3,11.3,13.1.1,19-12.3,22.8-58.1,15.9-116.8-22.9-121.2-83.4-.5-7.1.1-14.3,0-21.5-4.9-7.3-12.1-13.5-18.3-19.7l-26.3-26c-25.4-25.2-50.2-51.2-76.2-75.9-54.3,10.9-107.4-31.7-107.9-87,0-9,4.1-57.1,22.4-43.1,12.1,9.2,34.2,33.2,44.8,44.4,8.7-2.4,18-3.6,26.9-5.1,6.2-10.7,12.7-21.3,18.7-32.1ZM395.7,246.7c11.2,12.1,48.8,34.4,41.7,49.8-3.2,6.9-22.8,42.2-27.2,46-3,2.6-41.4,8.8-46.5,8.1-7.4-1.1-30.8-29.4-40.2-36-.3,44.8,21,80.8,69.6,81,26.7.1,18.2-9.5,40,12.2l88.8,88.6c8.2,8.1,22.7,20.7,29.5,29.1,4.9,6,.7,18.9.6,25.9-.4,45.4,43.2,81.4,87.8,72.6-3.4-3.7-6.8-7.4-10.2-11.1-7.5-7.4-32.8-30.8-36.7-37.9.4-6.6,10.4-49.8,13.9-53.9,2.4-2.9,55.1-20,58.1-18.6,3.8,1.8,41.2,40.7,47.4,47.8,2.9-48-35.6-85-83.4-76.8-7.1,1.2-21,7.7-27.4,5.6-6.8-2.3-42.4-40.9-49.4-48.1l-62.8-62.9c-23.4-23.1-17.5-13.9-15.6-42,3.2-47.9-32.1-79.3-78.2-79.3Z"/>
</svg>