<?xml version="1.0" encoding="UTF-8"?>
<svg id="ICONS" xmlns="http://www.w3.org/2000/svg" version="1.1" viewBox="0 0 224 224">
  <!-- Generator: Adobe Illustrator 29.4.0, SVG Export Plug-In . SVG Version: 2.1.0 Build 152)  -->
  <defs>
    <style>
      .st0 {
        fill: #2a7d2e;
      }
    </style>
  </defs>
  <g id="water_pump">
    <path class="st0" d="M148,224H36c-2.2,0-4-1.8-4-4s1.8-4,4-4h112c2.2,0,4,1.8,4,4s-1.8,4-4,4Z"/>
    <path class="st0" d="M36,200h-16c-11,0-20-9-20-20v-104c0-11,9-20,20-20h16c2.2,0,4,1.8,4,4v136c0,2.2-1.8,4-4,4ZM20,64c-6.6,0-12,5.4-12,12v104c0,6.6,5.4,12,12,12h12V64h-12Z"/>
    <path class="st0" d="M116,192H36c-2.2,0-4-1.8-4-4v-120c0-2.2,1.8-4,4-4h80c11,0,20,9,20,20v88c0,11-9,20-20,20ZM40,184h76c6.6,0,12-5.4,12-12v-88c0-6.6-5.4-12-12-12H40v112Z"/>
    <path class="st0" d="M204,176h-72c-2.2,0-4-1.8-4-4v-88c0-2.2,1.8-4,4-4h72c11,0,20,9,20,20v56c0,11-9,20-20,20ZM136,168h68c6.6,0,12-5.4,12-12v-56c0-6.6-5.4-12-12-12h-68v80Z"/>
    <g>
      <path class="st0" d="M108,96h-48c-2.2,0-4-1.8-4-4s1.8-4,4-4h48c2.2,0,4,1.8,4,4s-1.8,4-4,4Z"/>
      <path class="st0" d="M108,120h-48c-2.2,0-4-1.8-4-4s1.8-4,4-4h48c2.2,0,4,1.8,4,4s-1.8,4-4,4Z"/>
      <path class="st0" d="M108,144h-48c-2.2,0-4-1.8-4-4s1.8-4,4-4h48c2.2,0,4,1.8,4,4s-1.8,4-4,4Z"/>
      <path class="st0" d="M108,168h-48c-2.2,0-4-1.8-4-4s1.8-4,4-4h48c2.2,0,4,1.8,4,4s-1.8,4-4,4Z"/>
    </g>
    <path class="st0" d="M60,224c-2.2,0-4-1.8-4-4v-16c0-2.2,1.8-4,4-4s4,1.8,4,4v16c0,2.2-1.8,4-4,4Z"/>
    <path class="st0" d="M196,88c-2.2,0-4-1.8-4-4v-16h-32v16c0,2.2-1.8,4-4,4s-4-1.8-4-4v-20c0-2.2,1.8-4,4-4h40c2.2,0,4,1.8,4,4v20c0,2.2-1.8,4-4,4Z"/>
    <g>
      <path class="st0" d="M164,224c-2.2,0-4-1.8-4-4v-28c0-2.2,1.8-4,4-4s4,1.8,4,4v28c0,2.2-1.8,4-4,4Z"/>
      <path class="st0" d="M188,224c-2.2,0-4-1.8-4-4v-28c0-2.2,1.8-4,4-4s4,1.8,4,4v28c0,2.2-1.8,4-4,4Z"/>
      <path class="st0" d="M196,196h-40c-2.2,0-4-1.8-4-4v-20c0-2.2,1.8-4,4-4s4,1.8,4,4v16h32v-16c0-2.2,1.8-4,4-4s4,1.8,4,4v20c0,2.2-1.8,4-4,4Z"/>
    </g>
    <path class="st0" d="M196,112h-8c-2.2,0-4-1.8-4-4s1.8-4,4-4h8c2.2,0,4,1.8,4,4s-1.8,4-4,4Z"/>
    <path class="st0" d="M108,72c-2.2,0-4-1.8-4-4v-12c0-15.4-12.6-28-28-28h-36v40c0,2.2-1.8,4-4,4s-4-1.8-4-4V24c0-2.2,1.8-4,4-4h40c19.9,0,36,16.1,36,36v12c0,2.2-1.8,4-4,4Z"/>
    <path class="st0" d="M188,68h-24c-2.2,0-4-1.8-4-4v-32c0-17.6,14.4-32,32-32h28c2.2,0,4,1.8,4,4s-1.8,4-4,4h-28c-13.2,0-24,10.8-24,24v28h16v-28c0-4.4,3.6-8,8-8h28c2.2,0,4,1.8,4,4s-1.8,4-4,4h-28v32c0,2.2-1.8,4-4,4Z"/>
  </g>
</svg>