<?xml version="1.0" encoding="UTF-8"?>
<svg id="Layer_1" xmlns="http://www.w3.org/2000/svg" version="1.1" viewBox="0 0 346.2 334.3">
  <!-- Generator: Adobe Illustrator 29.4.0, SVG Export Plug-In . SVG Version: 2.1.0 Build 152)  -->
  <defs>
    <style>
      .st0 {
        fill: #3e8f50;
      }
    </style>
  </defs>
  <path class="st0" d="M8.8,134.8c-4.9,0-8.8,3.9-8.8,8.8v52.2c0,4.9,3.9,8.8,8.8,8.8s8.8-3.9,8.8-8.8v-52.2c0-4.9-3.9-8.8-8.8-8.8Z"/>
  <path class="st0" d="M337.4,134.8c-4.9,0-8.8,3.9-8.8,8.8v52.2c0,4.9,3.9,8.8,8.8,8.8s8.8-3.9,8.8-8.8v-52.2c0-4.9-3.9-8.8-8.8-8.8Z"/>
  <path class="st0" d="M295.4,105c-3.9-23.1-13.9-44.4-29.2-62,0,0-.1-.1-.2-.2-.8-.9-1.5-1.8-2.2-2.5C240.4,14.7,207.3,0,173.1,0s-4.3,0-6.4.2c-32,1.7-62.4,16.1-84.2,39.9,0,0,0,0,0,0,0,0-.1.1-.2.2,0,0,0,0,0,0-.6.6-1.2,1.3-1.8,2-.3.3-.7.7-1,1.1-15,17.5-24.9,38.7-28.8,61.5-13.3,2.6-23.4,14.3-23.4,28.4v84.4c0,16,13,28.9,28.9,28.9h4.3c16,0,28.9-13,28.9-28.9v-84.4c0-13.2-8.9-24.2-21-27.7,3.3-17.1,10.5-32.9,21.1-46.5l3.9,3.7c9.1,8.8,22.9,9.4,32.8,1.6,13.4-10.7,29.6-16.3,46.8-16.3s33.4,5.6,46.8,16.4c4.6,3.6,10,5.4,15.4,5.4s12.5-2.4,17.4-7.1l3.9-3.7c10.6,13.6,17.8,29.5,21,46.5-12.1,3.5-21,14.5-21,27.7v84.4c0,12.1,7.5,22.4,18,26.7-6.6,37.3-30.4,55.4-77.7,59.3-2.3-6.5-8.4-11.2-15.7-11.2h-24.6c-9.2,0-16.7,7.5-16.7,16.7v8.3c0,9.2,7.5,16.7,16.7,16.7h24.6c7.9,0,14.4-5.5,16.2-12.8,38.1-2.9,84.6-15.5,94.7-75,14.9-1.2,26.6-13.5,26.6-28.7v-84.4c0-14.1-10.1-25.8-23.4-28.4ZM71.9,133.3v84.4c0,6.2-5.1,11.3-11.3,11.3h-4.3c-6.2,0-11.3-5.1-11.3-11.3v-84.4c0-6.2,5.1-11.3,11.3-11.3h1.5c.5,0,1,0,1.5,0h1.2c6.2,0,11.3,5.1,11.3,11.3ZM230.9,50.7c-16.6-13.2-36.5-20.2-57.8-20.2s-41.2,7-57.8,20.1c-2.9,2.3-7,2.1-9.7-.5l-4.2-4c.3-.3.6-.7,1-1,1.1-1,2.2-1.8,3.2-2.8,1.6-1.4,3.2-2.7,4.9-4,1.2-.9,2.4-1.7,3.6-2.5,1.7-1.1,3.4-2.3,5.1-3.3,1.3-.8,2.5-1.5,3.8-2.2,1.8-1,3.5-1.9,5.3-2.7,1.3-.6,2.7-1.2,4-1.8,1.9-.8,3.8-1.5,5.7-2.2,1.4-.5,2.7-1,4.1-1.4,2-.6,4-1.1,6.1-1.6,1.3-.3,2.6-.7,4-1,2.3-.5,4.6-.8,6.9-1.1,1.1-.2,2.3-.4,3.4-.5,3.5-.3,7-.5,10.6-.5s7.1.2,10.6.5c1.1.1,2.2.3,3.3.5,2.4.3,4.7.6,7,1.1,1.3.3,2.5.6,3.8.9,2.1.5,4.3,1,6.3,1.7,1.3.4,2.5.8,3.7,1.3,2,.7,4.1,1.5,6.1,2.3,1.2.5,2.4,1.1,3.5,1.6,2,.9,4,2,5.9,3,1.1.6,2.2,1.2,3.2,1.9,2,1.2,3.9,2.5,5.8,3.8,1,.7,2,1.4,2.9,2.1,1.9,1.4,3.8,2.9,5.6,4.5.9.8,1.8,1.5,2.7,2.3.4.3.7.7,1,1l-4.1,4c-2.8,2.6-6.9,2.9-9.8.6ZM180.4,316.7h-22.8v-6.5h22.8v6.5ZM301.3,217.7c0,6.2-5.1,11.3-11.3,11.3h-4.3c-6.2,0-11.3-5.1-11.3-11.3v-84.4c0-6.2,5.1-11.3,11.3-11.3h1.9c0,0,.2,0,.3,0,.3,0,.6,0,.9,0h1.2c6.2,0,11.3,5.1,11.3,11.3v84.4Z"/>
</svg>