<?xml version="1.0" encoding="UTF-8"?>
<svg id="Layer_1" xmlns="http://www.w3.org/2000/svg" version="1.1" viewBox="0 0 3540.3 2124.2">
  <!-- Generator: Adobe Illustrator 29.4.0, SVG Export Plug-In . SVG Version: 2.1.0 Build 152)  -->
  <defs>
    <style>
      .st0 {
        fill: #2a7d2e;
      }
    </style>
  </defs>
  <path class="st0" d="M3481.3,0H59C26.4,0,0,26.4,0,59v2006.2c0,32.6,26.4,59,59,59h3422.3c32.6,0,59-26.4,59-59V59c0-32.6-26.4-59-59-59ZM1770.2,1357.1c-162.7,0-295-132.4-295-295s132.4-295,295-295,295,132.4,295,295-132.4,295-295,295ZM118,767.1h413v590.1H118v-590.1ZM118,1475.1h472c32.6,0,59-26.4,59-59v-708.1c0-32.6-26.4-59-59-59H118V118h1593.1v535.8c-199.8,28.8-354,200.7-354,408.3s154.2,379.5,354,408.3v535.8H118v-531ZM1829.2,2006.2v-535.8c199.8-28.8,354-200.7,354-408.3s-154.2-379.5-354-408.3V118h1593.1v531h-472c-32.6,0-59,26.4-59,59v708.1c0,32.6,26.4,59,59,59h472v531h-1593.1ZM3422.3,1357.1h-413v-590.1h413v590.1Z"/>
</svg>