<?xml version="1.0" encoding="UTF-8"?>
<svg id="Bahan_copy" xmlns="http://www.w3.org/2000/svg" version="1.1" viewBox="0 0 56 53.5">
  <!-- Generator: Adobe Illustrator 29.4.0, SVG Export Plug-In . SVG Version: 2.1.0 Build 152)  -->
  <defs>
    <style>
      .st0 {
        fill: #2a7d2e;
      }
    </style>
  </defs>
  <path class="st0" d="M53.8,42.9c3.1-10.1,2.8-21-.9-30.9-.5-1.4-1.9-2.2-3.4-2.1v-2.6c4.8-2.3,1.3-6.3-3.9-6-5.2-.2-8.6,3.7-3.9,6.1v2.6h-3.5V4c0-1.5-1-2.7-2.4-3.1-5.1-1.2-10.4-1.2-15.5,0-1.4.3-2.4,1.6-2.4,3.1v5.9H7.2c-1.2,0-2.3.7-2.8,1.7C-.9,21.9-1.4,32.4,2.9,42.7c-1.6,0-2.8,1.2-2.9,2.7v5.3c0,1.6,1.4,2.8,3,2.7h50c1.6,0,2.9-1.1,3-2.7v-5.3c0-1.2-.9-2.3-2.2-2.6ZM45.6,3.3c2.7,0,4.1,1,4.1,1.4s-1.4,1.4-4.1,1.4-4.1-1-4.1-1.4,1.5-1.4,4.1-1.4ZM45.6,8c.6,0,1.3,0,1.9-.1v2h-3.8v-2c.6.1,1.3.2,1.9.1ZM19.8,4c0-.5.4-1,.9-1.1,4.8-1.2,9.8-1.2,14.5,0,.5.1.9.6.9,1.1v5.9h-16.3v-5.9ZM12.1,17.3h7.8v4h-7.8v-4ZM19.9,12v3.4h-7.8v-3.4h7.8ZM6.2,12.6c.2-.4.6-.6,1-.6h2.9v16.7c0,.6.4,1,1,1s1-.4,1-1v-5.3h7.8v5.3c0,.6.4,1,1,1s1-.4,1-1V11.9h28.1c.5,0,.9.3,1.1.7,3.9,10.4,3.9,21.9,0,32.4-.2.4-.6.7-1,.7H7.2c-1.2,0-1.4-1.5-1.9-2.4C.7,33.1.9,22.7,6.2,12.5h0ZM54,50.8c0,.3-.4.7-1,.7H3c-.6,0-1-.4-1-.7v-5.3c0-.3.4-.7,1-.7h.8c.2.4.4.9.6,1.3.6,1,1.6,1.7,2.8,1.7h42.8c1.7,0,3-1.3,3.2-2.9.5,0,.8.4.8.7v5.3Z"/>
  <path class="st0" d="M37.2,34.5c4.8.2,8.2-5.6,5.6-9.7l-4.2-7.2c-.5-.8-1.5-1.1-2.3-.6-.2.1-.5.4-.6.6l-4.1,7.2c-2.5,4.1.8,9.9,5.6,9.8ZM33.3,25.7l3.9-6.7,3.9,6.7c.8,1.4.8,3.1,0,4.5-3.1,5.1-10.6.7-7.8-4.5Z"/>
</svg>