<?xml version="1.0" encoding="UTF-8"?>
<svg id="Layer_1" xmlns="http://www.w3.org/2000/svg" version="1.1" viewBox="0 0 30.8 30.8">
  <!-- Generator: Adobe Illustrator 29.4.0, SVG Export Plug-In . SVG Version: 2.1.0 Build 152)  -->
  <defs>
    <style>
      .st0 {
        fill: #cecece;
      }
    </style>
  </defs>
  <path id="youtube" class="st0" d="M26.3,9.9c-.2-.7-.8-1.7-2-2-1.6-.4-5.7-.4-8.9-.5h0c-1.6,0-3.4,0-5,.1-1.6,0-3.1.2-3.9.4-1.2.3-1.8,1.3-2,2-.3,1-.5,3.8-.5,5.5s.2,4.5.5,5.5c.2.7.8,1.7,2,2,1.6.4,5.7.4,8.9.5h0c1.6,0,3.4,0,5-.1,1.6,0,3.1-.2,3.9-.4,1.2-.3,1.8-1.3,2-2,.3-1,.5-3.8.5-5.5s-.2-4.5-.5-5.5ZM13.1,18.8v-6.8l6,3.4-6,3.4Z"/>
  <path class="st0" d="M23.3,0H7.5C3.4,0,0,3.4,0,7.5v15.9c0,4.1,3.4,7.5,7.5,7.5h15.9c4.1,0,7.5-3.4,7.5-7.5V7.5c0-4.1-3.4-7.5-7.5-7.5ZM29.9,23.3c0,3.6-2.9,6.6-6.6,6.6H7.5c-3.6,0-6.6-2.9-6.6-6.6V7.5C.9,3.9,3.9.9,7.5.9h15.9c3.6,0,6.6,2.9,6.6,6.6v15.9Z"/>
</svg>