<?xml version="1.0" encoding="UTF-8"?>
<svg id="line" xmlns="http://www.w3.org/2000/svg" version="1.1" viewBox="0 0 58 39.5">
  <!-- Generator: Adobe Illustrator 29.4.0, SVG Export Plug-In . SVG Version: 2.1.0 Build 152)  -->
  <defs>
    <style>
      .st0 {
        fill: #2a7d2e;
      }
    </style>
  </defs>
  <path class="st0" d="M57,37.5h-.9c-2.3-2.3-4.2-4-5.8-5.2-.8-.6-1.7-.9-2.6-1.1v-2.6c4.3.6,6-3.1,5.5-6.1,0-.6-.6-1.1-1.2-1.2-2.6-.2-4.3,1-5.3,2.6-1-1.6-2.7-2.7-5.3-2.6-.6,0-1.2.5-1.2,1.2-.1,1-.2,3.5,1.4,5,1,.9,2.6,1.3,4.1,1.1,0,0,0,2.5,0,2.5-3.4.6-7.5,5.2-8.5,6.3,0,0-1.8,0-1.8,0v-3.4c.7,0,1.2-.7,1.2-1.4v-4.4c0-.7-.5-1.3-1.2-1.4v-3.4c.7,0,1.2-.7,1.2-1.4v-5.5c0-1.1-.9-1.5-1.9-1.4,0,0,.4-1.6.4-1.6.4-1.3-.7-2.7-2-2.6,0,0-8.1,0-8.1,0-1.3,0-2.4,1.4-2,2.7,0,0,.4,1.6.4,1.6-.9-.1-1.9.3-1.9,1.4,0,0,0,5.5,0,5.5,0,.7.5,1.3,1.2,1.4v3.4c-.7.1-1.2.7-1.2,1.4v4.4c0,.7.5,1.3,1.2,1.4v3.4h-1.7c-2.3-2.3-4.2-4-5.8-5.2-.8-.6-1.7-.9-2.6-1.1v-2.6c4.3.6,6-3.1,5.5-6.1,0-.6-.6-1.1-1.2-1.2-2.6-.2-4.3,1-5.3,2.6-1-1.6-2.7-2.8-5.3-2.6-.6,0-1.1.5-1.2,1.2,0,.4-.4,3.4,1.2,3.1.5,0,.9-.6.8-1.2,0-.4,0-.8,0-1.1,2.4,0,3.2,1.9,3.5,3.3-.9.1-1.7,0-2.2-.3-.5-.3-1.1,0-1.4.4-.7,1.9,2.3,2,3.6,1.9,0,0,0,2.6,0,2.6-3.4.6-7.5,5.2-8.5,6.3,0,0-1,0-1,0-1.3,0-1.3,2,0,2,7.2,0,26.4,0,33.3,0h22.7c1.3,0,1.3-2,0-2h0ZM51.2,23.4c.1,2.1-.9,3.7-3.5,3.3.3-1.4,1.1-3.2,3.5-3.3ZM42.9,26.1c-.8-.7-.9-1.9-.9-2.7,2.4,0,3.2,1.9,3.5,3.3-1.2.1-2.1,0-2.6-.6ZM44.6,33.7c.3-.2.7-.3,1-.4v1.5c0,1.3,2,1.3,2,0,0,0,0-1.5,0-1.5,2.2.8,3.4,2.3,5.6,4.2,0,0-13.3,0-13.3,0,1.1-1.2,2.8-2.7,4.7-3.8ZM24.6,23.6h1.8c1.3,0,1.3-2,0-2,0,0-2.8,0-2.8,0h-.2v-4.3h11.1v4.3h-5c-1.3,0-1.3,2,0,2,0,0,3.8,0,3.8,0v3.4h-8.7v-3.4ZM23.4,32.1v-3.2h11.1v3.2h-11.1ZM24.9,13.2h.1c0-.1,8.1-.1,8.1-.1h.1c0,.1-.6,2.2-.6,2.2h-7.1s-.6-2.1-.6-2.1ZM16,23.4c.1,2.1-.9,3.7-3.5,3.3.3-1.4,1.1-3.2,3.5-3.3ZM9.5,33.7c.3-.2.7-.3,1-.4v1.5c0,1.3,2,1.3,2,0,0,0,0-1.5,0-1.5,2.2.8,3.4,2.3,5.6,4.2,0,0-13.3,0-13.3,0,1.1-1.2,2.8-2.7,4.7-3.8ZM24.6,37.5v-3.4h8.7v3.4h-8.7Z"/>
  <path class="st0" d="M32.2,9.2c.5.3,1.1.1,1.4-.3l1.5-2.5c.3-.5.1-1.1-.3-1.4-.5-.3-1.1-.1-1.4.3l-1.5,2.5c-.3.5-.1,1.1.3,1.4Z"/>
  <path class="st0" d="M36.6,4.8c.3.1,2.9-1.5,3.2-1.6.5-.3.7-.9.4-1.4s-.9-.7-1.4-.4l-2.7,1.5c-.9.5-.5,1.9.5,1.9Z"/>
  <path class="st0" d="M42.8,2.9h2.7c1.3,0,1.3-2,0-2,0,0-2.7,0-2.7,0-1.3,0-1.3,2,0,2Z"/>
  <path class="st0" d="M24.3,8.9c.7,1.1,2.4,0,1.7-1,0,0-1.5-2.5-1.5-2.5-.7-1.1-2.4-.1-1.7,1,0,0,1.5,2.5,1.5,2.5Z"/>
  <path class="st0" d="M18.1,3.2c.3.1,2.9,1.7,3.2,1.6,1,0,1.4-1.4.5-1.9,0,0-2.7-1.5-2.7-1.5-1.1-.6-2.1,1.1-1,1.7Z"/>
  <path class="st0" d="M12.4,2.9h2.7c1.3,0,1.3-2,0-2,0,0-2.7,0-2.7,0-1.3,0-1.3,2,0,2h0Z"/>
  <path class="st0" d="M29,9.1c.6,0,1-.4,1-1v-1.8c0-.6-.4-1-1-1s-1,.4-1,1v1.8c0,.6.4,1,1,1Z"/>
  <path class="st0" d="M29,3.8c.6,0,1-.4,1-1v-1.8c0-.6-.4-1-1-1s-1,.4-1,1v1.8c0,.6.4,1,1,1Z"/>
</svg>