<?xml version="1.0" encoding="UTF-8"?>
<svg id="Layer_1" xmlns="http://www.w3.org/2000/svg" version="1.1" viewBox="0 0 252.4 398.4">
  <!-- Generator: Adobe Illustrator 29.5.0, SVG Export Plug-In . SVG Version: 2.1.0 Build 137)  -->
  <defs>
    <style>
      .st0 {
        fill: #797979;
      }
    </style>
  </defs>
  <path class="st0" d="M198.8,126.1c0-40.2-32.6-72.8-72.8-72.8S53.2,85.9,53.2,126.1s32.6,72.8,72.8,72.8,72.8-32.6,72.8-72.8h0ZM24.1,201.6C-14.1,142.4-6.6,75,44.4,30.1,107.7-25.6,207.3,0,241,74.9c19.9,44.2,12.5,86.8-13.1,126.9-32.9,51.6-66,102.7-99.2,153.5-1,1.5-3,1.8-4.4.8-.4-.2-.7-.5-.9-.9-33-51-66.1-102.2-99.2-153.6h0Z"/>
  <path class="st0" d="M191.5,360.4c-.4-1.1-2.8-2.8-7.3-5.2-4.1-2.1-11.6-4.2-22.5-6.1-.8-.1-1.4-.9-1.3-1.7l.2-1.5c0-.6.4-.8,1-.7,14.8,1.4,27.8,6.7,39,15.8,4.7,3.8,5.5,10.6,1.8,15.4-21.1,27.7-136.2,31.2-153.1,0-3.5-6.4-1.4-14.4,4.8-18.3,10.3-6.5,21.7-10.9,34.1-13.1.8-.2,1.3.2,1.4,1l.4,2.1c0,.4-.1.6-.5.7-9.9,1.4-19.2,4.7-27.9,10.1-2.9,1.8-3.8,5.6-2,8.5.1.2.2.4.4.6,2.9,3.6,7,6.2,12.2,7.9,37.6,11.7,75,11.2,112.4-1.4,7-2.4,9.3-7,6.8-14h0Z"/>
</svg>